<?xml version="1.0" encoding="UTF-8"?>
<svg width="200" height="200" viewBox="0 0 200 200" xmlns="http://www.w3.org/2000/svg">
  <!-- Background Rounded Rectangle -->
  <rect x="10" y="10" width="180" height="180" rx="30" ry="30" fill="#002842" />
  
  <!-- Inner Glow Rectangle -->
  <rect x="30" y="30" width="140" height="140" rx="20" ry="20" fill="#00556E" />
  
  <!-- TF Logo with Gradient -->
  <defs>
    <linearGradient id="logoGradient" x1="0%" y1="0%" x2="100%" y2="100%">
      <stop offset="0%" style="stop-color:#00BFD6;stop-opacity:1" />
      <stop offset="100%" style="stop-color:#00E3A1;stop-opacity:1" />
    </linearGradient>
  </defs>
  
  <!-- Simplified TF Shape -->
  <path d="M60,50 L140,50 L140,70 L110,70 L110,150 L90,150 L90,70 L60,70 Z M90,90 L130,90 L130,110 L110,110 L110,150 L90,150 Z" 
        fill="url(#logoGradient)" />
  
  <!-- Edge Highlight -->
  <path d="M60,50 L140,50 L140,52 L60,52 Z M138,52 L140,52 L140,70 L138,70 Z M110,68 L112,68 L112,150 L110,150 Z M90,68 L92,68 L92,150 L90,150 Z M60,68 L62,68 L62,70 L60,70 Z M90,90 L92,90 L92,92 L90,92 Z M128,90 L130,90 L130,110 L128,110 Z M110,108 L112,108 L112,110 L110,110 Z" 
        fill="#7FFFEA" opacity="0.5" />
</svg>