<?xml version="1.0" encoding="UTF-8"?>
<svg width="100" height="100" viewBox="0 0 100 100" xmlns="http://www.w3.org/2000/svg">
  <!-- Background Circle -->
  <circle cx="50" cy="50" r="48" fill="#4285F4" stroke="#3367D6" stroke-width="2"/>
  
  <!-- Character Face -->
  <circle cx="50" cy="45" r="30" fill="#FFCC80"/>
  
  <!-- Hair -->
  <path d="M25 30C25 30 30 15 50 15C70 15 75 30 75 30V40C75 40 70 35 65 38C65 38 60 25 50 25C40 25 35 38 35 38C35 38 30 35 25 40V30Z" fill="#5D4037"/>
  
  <!-- Eyes -->
  <g>
    <!-- Left Eye -->
    <circle cx="38" cy="42" r="5" fill="white"/>
    <circle cx="40" cy="42" r="2" fill="#333"/>
    
    <!-- Right Eye -->
    <circle cx="62" cy="42" r="5" fill="white"/>
    <circle cx="64" cy="42" r="2" fill="#333"/>
    
    <!-- Animated Eyebrows - Normal state -->
    <path d="M33 37C33 37 38 35 43 37" stroke="#5D4037" stroke-width="2" stroke-linecap="round" fill="none">
      <animate attributeName="d" values="M33 37C33 37 38 35 43 37; M33 34C33 34 38 39 43 34; M33 37C33 37 38 35 43 37" dur="3s" repeatCount="indefinite"/>
    </path>
    <path d="M57 37C57 37 62 35 67 37" stroke="#5D4037" stroke-width="2" stroke-linecap="round" fill="none">
      <animate attributeName="d" values="M57 37C57 37 62 35 67 37; M57 34C57 34 62 39 67 34; M57 37C57 37 62 35 67 37" dur="3s" repeatCount="indefinite"/>
    </path>
  </g>

  <!-- Nose -->
  <path d="M50 45L47 55H53L50 45Z" fill="#FFAB91"/>
  
  <!-- Mouth with animation -->
  <path d="M40 60C40 60 45 65 50 65C55 65 60 60 60 60" stroke="#5D4037" stroke-width="2" stroke-linecap="round" fill="none">
    <animate attributeName="d" values="M40 60C40 60 45 65 50 65C55 65 60 60 60 60; M40 63C40 63 45 58 50 58C55 58 60 63 60 63; M40 60C40 60 45 65 50 65C55 65 60 60 60 60" dur="5s" repeatCount="indefinite"/>
  </path>
  
  <!-- Hard Hat (for Benton County Assessor) -->
  <path d="M20 25C20 25 30 10 50 10C70 10 80 25 80 25L75 28C75 28 65 15 50 15C35 15 25 28 25 28L20 25Z" fill="#FFC107" stroke="#FFA000" stroke-width="1"/>
  <path d="M20 25C20 25 25 30 50 30C75 30 80 25 80 25" fill="#FFC107" stroke="#FFA000" stroke-width="1"/>
  
  <!-- Measuring Tape -->
  <rect x="15" y="75" width="70" height="10" rx="5" ry="5" fill="#F44336" stroke="#D32F2F" stroke-width="1"/>
  <rect x="25" y="72" width="50" height="3" fill="#FFEB3B"/>
  <rect x="25" y="72" width="50" height="1" fill="#212121" opacity="0.2"/>
  <rect x="30" y="72" width="1" height="3" fill="#212121"/>
  <rect x="35" y="72" width="1" height="3" fill="#212121"/>
  <rect x="40" y="72" width="1" height="3" fill="#212121"/>
  <rect x="45" y="72" width="1" height="3" fill="#212121"/>
  <rect x="50" y="72" width="1" height="3" fill="#212121"/>
  <rect x="55" y="72" width="1" height="3" fill="#212121"/>
  <rect x="60" y="72" width="1" height="3" fill="#212121"/>
  <rect x="65" y="72" width="1" height="3" fill="#212121"/>
  <rect x="70" y="72" width="1" height="3" fill="#212121"/>
  
  <!-- Measuring Tape Pull -->
  <rect x="85" y="77" width="10" height="6" rx="3" ry="3" fill="#FFEB3B" stroke="#FBC02D" stroke-width="1">
    <animate attributeName="x" values="85;88;85" dur="3s" repeatCount="indefinite"/>
  </rect>
  
  <!-- Animation: Blink -->
  <g>
    <path d="M38 42C38 42 36 42 36 42C36 42 40 42 40 42Z" fill="#333" opacity="0">
      <animate attributeName="opacity" values="0;0;1;0;0" dur="5s" repeatCount="indefinite"/>
    </path>
    <path d="M62 42C62 42 60 42 60 42C60 42 64 42 64 42Z" fill="#333" opacity="0">
      <animate attributeName="opacity" values="0;0;1;0;0" dur="5s" repeatCount="indefinite"/>
    </path>
  </g>
</svg>